<svg width="20" height="21" viewBox="0 0 20 21" fill="none" xmlns="http://www.w3.org/2000/svg">
<path d="M17.9221 0.950989H1.03895C0.467516 0.950989 0 1.41939 0 1.9919V3.86553C0 4.43805 0.467516 4.90645 1.03895 4.90645H17.8701C18.4416 4.90645 18.9091 4.43805 18.9091 3.86553V1.9919C18.961 1.41939 18.4935 0.950989 17.9221 0.950989ZM17.9221 11.4121H1.03895C0.467516 11.4121 0 11.8805 0 12.453V14.3267C0 14.8992 0.467516 15.3676 1.03895 15.3676H17.8701C18.4416 15.3676 18.9091 14.8992 18.9091 14.3267V12.453C18.961 11.8805 18.4935 11.4121 17.9221 11.4121ZM10.5455 16.6687H1.03895C0.467516 16.6687 0 17.1371 0 17.7097V19.5833C0 20.1558 0.467516 20.6242 1.03895 20.6242H10.5455C11.1169 20.6242 11.5844 20.1558 11.5844 19.5833V17.7097C11.5844 17.1371 11.1169 16.6687 10.5455 16.6687ZM18.961 6.20759H1.03895C0.467516 6.20759 0 6.67599 0 7.24847V9.12213C0 9.69462 0.467516 10.163 1.03895 10.163H18.961C19.5325 10.163 20 9.69462 20 9.12213V7.24847C20 6.67599 19.5325 6.20759 18.961 6.20759Z" fill="#0BA4DB"/>
</svg>
