<svg width="92" height="19" viewBox="0 0 92 19" fill="none" xmlns="http://www.w3.org/2000/svg">
<path d="M10.104 18.288C8.776 18.288 7.552 18.08 6.432 17.664C5.328 17.232 4.36 16.624 3.528 15.84C2.712 15.056 2.072 14.136 1.608 13.08C1.16 12.024 0.936 10.864 0.936 9.6C0.936 8.336 1.16 7.176 1.608 6.12C2.072 5.064 2.72 4.144 3.552 3.36C4.384 2.576 5.36 1.976 6.48 1.56C7.6 1.128 8.832 0.912 10.176 0.912C11.664 0.912 13 1.16 14.184 1.656C15.384 2.152 16.392 2.872 17.208 3.816L14.712 6.12C14.104 5.48 13.44 5.008 12.72 4.704C12 4.384 11.216 4.224 10.368 4.224C9.552 4.224 8.808 4.352 8.136 4.608C7.464 4.864 6.88 5.232 6.384 5.712C5.904 6.192 5.528 6.76 5.256 7.416C5 8.072 4.872 8.8 4.872 9.6C4.872 10.384 5 11.104 5.256 11.76C5.528 12.416 5.904 12.992 6.384 13.488C6.88 13.968 7.456 14.336 8.112 14.592C8.784 14.848 9.52 14.976 10.32 14.976C11.088 14.976 11.832 14.856 12.552 14.616C13.288 14.36 14 13.936 14.688 13.344L16.896 16.152C15.984 16.84 14.92 17.368 13.704 17.736C12.504 18.104 11.304 18.288 10.104 18.288ZM13.344 15.648V9.336H16.896V16.152L13.344 15.648ZM23.9876 18V4.368H18.6116V1.2H33.2516V4.368H27.8756V18H23.9876ZM34.7061 18V15.48L41.1861 9.36C41.6981 8.896 42.0741 8.48 42.3141 8.112C42.5541 7.744 42.7141 7.408 42.7941 7.104C42.8901 6.8 42.9381 6.52 42.9381 6.264C42.9381 5.592 42.7061 5.08 42.2421 4.728C41.7941 4.36 41.1301 4.176 40.2501 4.176C39.5461 4.176 38.8901 4.312 38.2821 4.584C37.6901 4.856 37.1861 5.28 36.7701 5.856L33.9381 4.032C34.5781 3.072 35.4741 2.312 36.6261 1.752C37.7781 1.192 39.1061 0.912 40.6101 0.912C41.8581 0.912 42.9461 1.12 43.8741 1.536C44.8181 1.936 45.5461 2.504 46.0581 3.24C46.5861 3.976 46.8501 4.856 46.8501 5.88C46.8501 6.424 46.7781 6.968 46.6341 7.512C46.5061 8.04 46.2341 8.6 45.8181 9.192C45.4181 9.784 44.8261 10.448 44.0421 11.184L38.6661 16.248L37.9221 14.832H47.4021V18H34.7061ZM56.2063 18.288C54.8303 18.288 53.5983 17.952 52.5103 17.28C51.4223 16.592 50.5663 15.6 49.9423 14.304C49.3183 13.008 49.0063 11.44 49.0063 9.6C49.0063 7.76 49.3183 6.192 49.9423 4.896C50.5663 3.6 51.4223 2.616 52.5103 1.944C53.5983 1.256 54.8303 0.912 56.2063 0.912C57.5983 0.912 58.8303 1.256 59.9023 1.944C60.9903 2.616 61.8463 3.6 62.4703 4.896C63.0943 6.192 63.4063 7.76 63.4063 9.6C63.4063 11.44 63.0943 13.008 62.4703 14.304C61.8463 15.6 60.9903 16.592 59.9023 17.28C58.8303 17.952 57.5983 18.288 56.2063 18.288ZM56.2063 15C56.8623 15 57.4303 14.816 57.9103 14.448C58.4063 14.08 58.7903 13.496 59.0623 12.696C59.3503 11.896 59.4943 10.864 59.4943 9.6C59.4943 8.336 59.3503 7.304 59.0623 6.504C58.7903 5.704 58.4063 5.12 57.9103 4.752C57.4303 4.384 56.8623 4.2 56.2063 4.2C55.5663 4.2 54.9983 4.384 54.5023 4.752C54.0223 5.12 53.6383 5.704 53.3503 6.504C53.0783 7.304 52.9423 8.336 52.9423 9.6C52.9423 10.864 53.0783 11.896 53.3503 12.696C53.6383 13.496 54.0223 14.08 54.5023 14.448C54.9983 14.816 55.5663 15 56.2063 15ZM65.0576 18V15.48L71.5376 9.36C72.0496 8.896 72.4256 8.48 72.6656 8.112C72.9056 7.744 73.0656 7.408 73.1456 7.104C73.2416 6.8 73.2896 6.52 73.2896 6.264C73.2896 5.592 73.0576 5.08 72.5936 4.728C72.1456 4.36 71.4816 4.176 70.6016 4.176C69.8976 4.176 69.2416 4.312 68.6336 4.584C68.0416 4.856 67.5376 5.28 67.1216 5.856L64.2896 4.032C64.9296 3.072 65.8256 2.312 66.9776 1.752C68.1296 1.192 69.4576 0.912 70.9616 0.912C72.2096 0.912 73.2976 1.12 74.2256 1.536C75.1696 1.936 75.8976 2.504 76.4096 3.24C76.9376 3.976 77.2016 4.856 77.2016 5.88C77.2016 6.424 77.1296 6.968 76.9856 7.512C76.8576 8.04 76.5856 8.6 76.1696 9.192C75.7696 9.784 75.1776 10.448 74.3936 11.184L69.0176 16.248L68.2736 14.832H77.7536V18H65.0576ZM79.2139 18V15.48L85.6939 9.36C86.2059 8.896 86.5819 8.48 86.8219 8.112C87.0619 7.744 87.2219 7.408 87.3019 7.104C87.3979 6.8 87.4459 6.52 87.4459 6.264C87.4459 5.592 87.2139 5.08 86.7499 4.728C86.3019 4.36 85.6379 4.176 84.7579 4.176C84.0539 4.176 83.3979 4.312 82.7899 4.584C82.1979 4.856 81.6939 5.28 81.2779 5.856L78.4459 4.032C79.0859 3.072 79.9819 2.312 81.1339 1.752C82.2859 1.192 83.6139 0.912 85.1179 0.912C86.3659 0.912 87.4539 1.12 88.3819 1.536C89.3259 1.936 90.0539 2.504 90.5659 3.24C91.0939 3.976 91.3579 4.856 91.3579 5.88C91.3579 6.424 91.2859 6.968 91.1419 7.512C91.0139 8.04 90.7419 8.6 90.3259 9.192C89.9259 9.784 89.3339 10.448 88.5499 11.184L83.1739 16.248L82.4299 14.832H91.9099V18H79.2139Z" fill="#024EC5"/>
</svg>
