<svg width="28" height="24" viewBox="0 0 28 24" fill="none" xmlns="http://www.w3.org/2000/svg">
<path fill-rule="evenodd" clip-rule="evenodd" d="M19.9206 0C24.019 0 27.1095 3.344 27.1095 7.77846V16.2314C27.1095 18.5009 26.307 20.5514 24.8486 22.0062C23.5403 23.3095 21.843 24 19.9403 24H7.81349C5.91441 24 4.21841 23.3108 2.90887 22.0062C1.45041 20.5514 0.647949 18.5009 0.647949 16.2314V7.77846C0.647949 3.344 3.73841 0 7.83687 0H19.9206ZM19.9206 1.84615H7.83687C4.74149 1.84615 2.4941 4.34092 2.4941 7.77846V16.2314C2.4941 18.0074 3.10456 19.5938 4.21226 20.6978C5.16733 21.6517 6.4141 22.1538 7.81718 22.1538H19.9206C19.923 22.1514 19.9329 22.1538 19.9403 22.1538C21.3446 22.1538 22.5901 21.6517 23.5452 20.6978C24.6541 19.5938 25.2633 18.0074 25.2633 16.2314V7.77846C25.2633 4.34092 23.016 1.84615 19.9206 1.84615ZM21.8603 7.54314C22.1815 7.93822 22.1212 8.51914 21.7261 8.8416L16.2566 13.2871C15.5649 13.8361 14.7378 14.1105 13.912 14.1105C13.0886 14.1105 12.2676 13.8385 11.5809 13.2945L6.06087 8.84406C5.66333 8.52406 5.6018 7.94191 5.92056 7.5456C6.2418 7.15052 6.82272 7.08775 7.21903 7.40652L12.7341 11.8521C13.427 12.401 14.403 12.401 15.1009 11.8471L20.5606 7.40899C20.9569 7.08529 21.5378 7.14683 21.8603 7.54314Z" fill="black"/>
</svg>
