<svg width="16" height="16" viewBox="0 0 16 16" fill="none" xmlns="http://www.w3.org/2000/svg">
<path d="M10.2346 0L10.212 7.0719L9.6839 6.25106C9.68372 6.25077 9.68307 6.24973 9.68289 6.24945L9.00047 14.1214C9.67142 15.1652 10.0309 15.7224 10.0349 15.7246C10.0402 15.7275 10.4226 15.7402 10.8846 15.7528C12.2845 15.7911 14.0193 15.8731 15.3353 15.9632C15.64 15.984 15.9022 15.9947 15.918 15.9869C15.9338 15.9791 15.9424 12.3789 15.9371 7.98638L15.9275 0H10.2346Z" fill="#B1060F"/>
<path d="M0 0V7.99447C0 12.3914 0.00781014 15.9933 0.0173723 15.9985C0.0269339 16.0038 0.521238 15.9781 1.11583 15.9414C1.71041 15.9047 2.53218 15.8591 2.94195 15.8401C3.57041 15.8108 5.4468 15.7444 5.66408 15.7436C5.72729 15.7434 5.73134 15.5638 5.7405 12.3575L5.75017 8.97162L6.20418 9.67924C6.27434 9.78861 6.29635 9.82276 6.36471 9.92931L7.04694 2.05928C6.90239 1.83414 6.97817 1.95233 6.81251 1.69431C6.25508 0.826108 5.78207 0.0897138 5.76133 0.0578802L5.7236 0H0Z" fill="#B1060F"/>
<path d="M0 0L1.52828e-06 4.48752L5.73859 12.8732C5.73919 12.681 5.73987 12.5772 5.7405 12.3575L5.75017 8.97162L6.20418 9.67924C8.73138 13.6186 10.0891 15.7307 10.0971 15.7351C10.1024 15.738 10.4848 15.7507 10.9468 15.7634C12.3467 15.8016 14.0815 15.8836 15.3975 15.9737C15.7022 15.9946 15.9644 16.0052 15.9802 15.9975C15.991 15.9921 15.9981 14.2268 16 11.7365L10.2883 2.69044L10.2742 7.08243L9.74609 6.26158C9.23009 5.45952 8.88556 4.92314 6.81251 1.69431C6.25508 0.826108 5.78207 0.0897138 5.76133 0.0578802L5.7236 0H0Z" fill="url(#paint0_radial_33_182)"/>
<path d="M5.75005 8.9757L5.75017 8.97162L6.20418 9.67924C8.73138 13.6186 10.0891 15.7307 10.0971 15.7351C10.1024 15.738 10.4848 15.7507 10.9468 15.7634C12.3467 15.8016 14.0815 15.8836 15.3975 15.9737C15.7006 15.9945 15.8827 16.001 15.9009 15.9935L10.2741 7.08078L10.2742 7.08243L9.74609 6.26158C9.23009 5.45952 8.88556 4.92314 6.81251 1.69431C6.25508 0.826108 5.78207 0.0897138 5.76133 0.0578802L5.7236 0H0L5.75005 8.9757Z" fill="#E50914"/>
<path d="M10.212 7.0719L9.6839 6.25106C9.68372 6.25077 9.68307 6.24973 9.68289 6.24945L9.00047 14.1214C9.67142 15.1652 10.0309 15.7224 10.0349 15.7246C10.0402 15.7275 10.4226 15.7402 10.8846 15.7528C12.2845 15.7911 14.0193 15.8731 15.3353 15.9632C15.64 15.984 15.9022 15.9947 15.918 15.9869C15.9338 15.9791 15.9424 12.3789 15.9371 7.98638L15.9275 0H10.2346L10.212 7.0719Z" fill="#B1060F"/>
<path d="M0 0V7.99447C0 12.3914 0.00781014 15.9933 0.0173723 15.9985C0.0269339 16.0038 0.521238 15.9781 1.11583 15.9414C1.71041 15.9047 2.53218 15.8591 2.94195 15.8401C3.57041 15.8108 5.4468 15.7444 5.66408 15.7436C5.72729 15.7434 5.73134 15.5638 5.7405 12.3575L5.75017 8.97162L6.20418 9.67924C6.27434 9.78861 6.29635 9.82276 6.36471 9.92931L7.04694 2.05928C6.90239 1.83414 6.97817 1.95233 6.81251 1.69431C6.25508 0.826108 5.78207 0.0897138 5.76133 0.0578802L5.7236 0H0Z" fill="#B1060F"/>
<path d="M1.52828e-06 4.48752L5.73859 12.8732C5.73919 12.681 5.73987 12.5772 5.7405 12.3575L5.75017 8.97162L6.20418 9.67924C8.73138 13.6186 10.0891 15.7307 10.0971 15.7351C10.1024 15.738 10.4848 15.7507 10.9468 15.7634C12.3467 15.8016 14.0815 15.8836 15.3975 15.9737C15.7022 15.9946 15.8061 15.9926 15.8218 15.9848C15.8327 15.9795 15.9981 14.2268 16 11.7365L10.2883 2.69044L10.2742 7.08243L9.74609 6.26158C9.23009 5.45952 8.88556 4.92314 6.81251 1.69431C6.25508 0.826108 5.78207 0.0897138 5.76133 0.0578802L5.7236 0H0L1.52828e-06 4.48752Z" fill="url(#paint1_radial_33_182)"/>
<path d="M5.75005 8.9757L5.75017 8.97162L6.20418 9.67924C8.73138 13.6186 9.99254 15.7351 10.0005 15.7395C10.0058 15.7424 10.4848 15.7507 10.9468 15.7634C12.3467 15.8016 14.0815 15.8836 15.3975 15.9737C15.7006 15.9945 15.8827 16.001 15.9009 15.9935L10.2741 7.08078L10.2742 7.08243L9.74609 6.26158C9.23009 5.45952 8.88556 4.92314 6.81251 1.69431C6.25508 0.826108 5.78207 0.0897138 5.76133 0.0578802L5.7236 0H0L5.75005 8.9757Z" fill="#E50914"/>
<defs>
<radialGradient id="paint0_radial_33_182" cx="0" cy="0" r="1" gradientUnits="userSpaceOnUse" gradientTransform="translate(12.361 3.31491) rotate(-5.6618) scale(3.44368 2.01119)">
<stop/>
<stop offset="1" stop-opacity="0"/>
</radialGradient>
<radialGradient id="paint1_radial_33_182" cx="0" cy="0" r="1" gradientUnits="userSpaceOnUse" gradientTransform="translate(12.3556 3.31706) rotate(-5.66521) scale(3.4437 2.01211)">
<stop/>
<stop offset="1" stop-opacity="0"/>
</radialGradient>
</defs>
</svg>
