<svg width="21" height="24" viewBox="0 0 21 24" fill="none" xmlns="http://www.w3.org/2000/svg">
<path fill-rule="evenodd" clip-rule="evenodd" d="M8.17588 21.3276C8.75411 21.9717 9.49644 22.3256 10.2667 22.3256H10.2678C11.0414 22.3256 11.787 21.9717 12.3664 21.3265C12.6767 20.9838 13.2058 20.9559 13.5485 21.2651C13.8923 21.5743 13.9203 22.1046 13.611 22.4473C12.7091 23.4486 11.5225 24 10.2678 24H10.2656C9.01421 23.9989 7.82983 23.4474 6.93123 22.4461C6.62202 22.1034 6.64993 21.5732 6.99374 21.2651C7.33756 20.9548 7.86667 20.9827 8.17588 21.3276ZM10.3223 0C15.2841 0 18.6173 3.86456 18.6173 7.47349C18.6173 9.32986 19.0895 10.1168 19.5907 10.9518C20.0864 11.7756 20.6478 12.7111 20.6478 14.4793C20.2583 18.9968 15.542 19.3652 10.3223 19.3652C5.10254 19.3652 0.385146 18.9968 1.47754e-05 14.5507C-0.00331915 12.7111 0.558169 11.7756 1.0538 10.9518L1.22877 10.6573C1.65957 9.91687 2.02719 9.11146 2.02719 7.47349C2.02719 3.86456 5.3604 0 10.3223 0ZM10.3223 1.67442C6.42087 1.67442 3.70161 4.73079 3.70161 7.47349C3.70161 9.79423 3.05752 10.867 2.48822 11.8136C2.03166 12.5738 1.6711 13.1743 1.6711 14.4793C1.85752 16.5846 3.24729 17.6908 10.3223 17.6908C17.3582 17.6908 18.7915 16.5354 18.9768 14.4067C18.9734 13.1743 18.6129 12.5738 18.1563 11.8136C17.587 10.867 16.9429 9.79423 16.9429 7.47349C16.9429 4.73079 14.2237 1.67442 10.3223 1.67442Z" fill="black"/>
</svg>
