<svg width="48" height="17" viewBox="0 0 48 17" fill="none" xmlns="http://www.w3.org/2000/svg">
<path d="M24.8245 5.73144C24.7971 7.89059 26.7487 9.09556 28.2188 9.81192C29.7294 10.547 30.2367 11.0183 30.231 11.6756C30.2194 12.6817 29.026 13.1256 27.909 13.1429C25.9602 13.1732 24.8273 12.6168 23.9265 12.1959L23.2246 15.4808C24.1283 15.8973 25.8017 16.2605 27.5371 16.2764C31.6104 16.2764 34.2754 14.2657 34.2898 11.1481C34.3057 7.19153 28.817 6.97245 28.8545 5.2039C28.8675 4.66772 29.3791 4.0955 30.5005 3.94992C31.0554 3.87642 32.5876 3.8202 34.3244 4.62016L35.0062 1.44197C34.0722 1.10181 32.8715 0.776062 31.3769 0.776062C27.5429 0.776062 24.8461 2.81414 24.8245 5.73144ZM41.5571 1.04992C40.8134 1.04992 40.1864 1.48377 39.9068 2.14967L34.088 16.0429H38.1584L38.9685 13.8045H43.9426L44.4125 16.0429H48L44.8694 1.04992H41.5571ZM42.1265 5.10013L43.3012 10.7301H40.0841L42.1265 5.10013ZM19.8893 1.04992L16.6808 16.0429H20.5595L23.7665 1.04992H19.8893ZM14.1512 1.04992L10.114 11.2547L8.48093 2.57776C8.28923 1.60917 7.53252 1.04992 6.69221 1.04992H0.0922467L0 1.48521C1.35487 1.77924 2.89424 2.25345 3.8268 2.76081C4.39757 3.0707 4.56045 3.34167 4.74782 4.07821L7.84097 16.0429H11.9402L18.2245 1.04992H14.1512Z" fill="url(#paint0_linear_34_189)"/>
<defs>
<linearGradient id="paint0_linear_34_189" x1="22.0676" y1="16.5874" x2="22.5163" y2="0.668276" gradientUnits="userSpaceOnUse">
<stop stop-color="#222357"/>
<stop offset="1" stop-color="#254AA5"/>
</linearGradient>
</defs>
</svg>
