<svg width="32" height="32" viewBox="0 0 32 32" fill="none" xmlns="http://www.w3.org/2000/svg">
<circle cx="16" cy="16" r="16" fill="#FFCBFD"/>
<path d="M20.625 13H11.375C10.3406 13 9.5 13.8406 9.5 14.875V20.125C9.5 21.1594 10.3406 22 11.375 22H20.625C21.6594 22 22.5 21.1594 22.5 20.125V14.875C22.5 13.8406 21.6594 13 20.625 13ZM18.7156 10.0312L11.375 11.4656C10.8125 11.5906 10 12.1562 10 12.8437C10 12.8437 10.4688 12.25 11.5312 12.25H20.5V11.6094C20.5 11.2156 20.3438 10.7125 20.0656 10.4344C19.7125 10.0812 19.2063 9.92812 18.7156 10.0312Z" fill="#BF00B8"/>
</svg>
