<svg width="52" height="26" viewBox="0 0 52 26" fill="none" xmlns="http://www.w3.org/2000/svg">
<path d="M26 0C11.6407 0 0 5.8204 0 12.9999C0 20.1796 11.6407 25.9999 26 25.9999C40.3593 25.9999 52 20.1795 52 12.9999C52 5.8203 40.3593 0 26 0ZM26 23.9476C12.7741 23.9476 2.05242 19.0462 2.05242 12.9999C2.05242 6.9537 12.7742 2.05232 26 2.05232C39.2259 2.05232 49.9476 6.9537 49.9476 12.9999C49.9476 19.0462 39.2258 23.9476 26 23.9476ZM22.7211 10.7193V8.66653H30.056V10.7193H27.4153V17.3334H25.3622V10.7193H22.7211V10.7193ZM38.9097 8.66653V17.3335H36.8574L33.1349 12.1741V17.3335H31.0825V8.66653H33.1348L36.8573 13.8259V8.66653H38.9097V8.66653ZM13.0292 17.3335V8.66653H15.0816L17.3618 12.1741L19.6421 8.66653H21.6937V17.3335H19.6421V12.4312L18.0854 14.8241H16.6383L15.0816 12.4312V17.3335H13.0292V17.3335Z" fill="black"/>
</svg>
