<svg width="395" height="177" viewBox="0 0 395 177" fill="none" xmlns="http://www.w3.org/2000/svg">
<path d="M350.983 229H-48V59.4247C-48 25.0715 -40.417 18.2359 -36.6255 19.1123C36.8715 24.3705 53.9333 74.7613 77.9948 33.5721C102.056 -7.61701 105.556 -14.6274 133.118 33.5721C160.679 81.7716 252.988 105.872 290.611 45.8411C328.234 -14.1896 351.713 56.6495 350.983 78.2664V229Z" fill="#3CC0FF" fill-opacity="0.4"/>
<path d="M417.982 276H-8V95.3172C-8 58.7137 0.0961561 51.4304 4.14423 52.3642C82.6147 57.9668 100.831 111.658 126.521 67.7712C152.21 23.884 155.947 16.4145 185.374 67.7712C214.8 119.128 313.355 144.807 353.525 80.8438C393.694 16.8809 418.761 92.3602 417.982 115.393V276Z" fill="#87D8FF" fill-opacity="0.4"/>
<path d="M321.983 310H-77V140.425C-77 106.071 -69.417 99.2359 -65.6255 100.112C7.87149 105.37 24.9333 155.761 48.9948 114.572C73.0563 73.383 76.5562 66.3726 104.118 114.572C131.679 162.772 223.988 186.872 261.611 126.841C299.234 66.8104 322.713 137.65 321.983 159.266V310Z" fill="#01A8F8" fill-opacity="0.3"/>
</svg>
