<svg width="451" height="314" viewBox="0 0 451 314" fill="none" xmlns="http://www.w3.org/2000/svg">
<path d="M68.6863 69.6711C84.3244 63.0151 103.802 67.2323 122.824 70.1591C123.001 66.6147 125.146 62.3009 122.899 59.828C120.168 56.8238 120.42 53.6672 122.063 50.4924C126.265 42.3739 120.245 33.7354 114.167 26.5526C112.797 24.9373 111.065 23.6681 109.113 22.8482C107.161 22.0282 105.043 21.6806 102.931 21.8336L91.6717 22.6384C88.9319 22.8343 86.3172 23.8627 84.1774 25.5863C82.0377 27.3098 80.4749 29.6462 79.6984 32.2828C77.0099 35.9417 75.5709 39.5906 76.4769 43.2204C72.4499 45.9742 71.7734 49.2984 73.5829 53.0458C75.1173 55.4054 75.101 57.7021 73.5131 59.9353C71.4277 62.7825 69.8305 65.9572 68.7869 69.3293L68.6863 69.6711Z" fill="#2F2E41"/>
<path d="M440.313 271.448H121.589C118.754 271.448 116.036 270.321 114.032 268.316C112.028 266.31 110.902 263.59 110.902 260.754C226.439 247.317 339.805 247.317 451 260.754C451 263.59 449.874 266.31 447.87 268.316C445.866 270.321 443.147 271.448 440.313 271.448Z" fill="#2F2E41"/>
<path d="M451 261.383L110.902 260.754L150.318 194.386L150.506 194.071V47.8038C150.506 46.0284 150.856 44.2704 151.534 42.6301C152.213 40.9899 153.208 39.4995 154.463 38.2441C155.717 36.9887 157.207 35.993 158.846 35.3136C160.485 34.6343 162.242 34.2847 164.016 34.2849H396C397.774 34.2847 399.531 34.6343 401.17 35.3136C402.809 35.993 404.298 36.9887 405.553 38.2441C406.807 39.4995 407.802 40.9899 408.481 42.6301C409.16 44.2704 409.509 46.0284 409.509 47.8038V195.078L451 261.383Z" fill="#3F3D56"/>
<path d="M163.708 43.7211C162.541 43.7224 161.423 44.1867 160.598 45.0123C159.773 45.8378 159.309 46.9571 159.308 48.1246V181.49C159.309 182.657 159.773 183.776 160.598 184.602C161.423 185.427 162.541 185.892 163.708 185.893H398.194C399.36 185.892 400.479 185.427 401.304 184.602C402.129 183.776 402.593 182.657 402.594 181.49V48.1246C402.593 46.9571 402.129 45.8379 401.304 45.0123C400.479 44.1868 399.36 43.7224 398.194 43.7211H163.708Z" fill="white"/>
<path d="M164.691 203.507C164.33 203.508 163.977 203.612 163.674 203.806C163.37 204.001 163.128 204.278 162.977 204.606L150.832 231.027C150.7 231.315 150.642 231.631 150.664 231.947C150.686 232.262 150.786 232.567 150.957 232.834C151.128 233.101 151.363 233.32 151.64 233.472C151.917 233.624 152.229 233.703 152.545 233.703H407.955C408.277 233.703 408.593 233.621 408.874 233.464C409.155 233.308 409.391 233.082 409.56 232.808C409.729 232.534 409.825 232.222 409.839 231.901C409.854 231.579 409.786 231.26 409.642 230.972L396.44 204.55C396.285 204.236 396.044 203.972 395.746 203.788C395.448 203.603 395.104 203.506 394.754 203.507H164.691Z" fill="#2F2E41"/>
<path d="M280.008 41.5193C281.57 41.5193 282.837 40.2519 282.837 38.6884C282.837 37.125 281.57 35.8576 280.008 35.8576C278.446 35.8576 277.179 37.125 277.179 38.6884C277.179 40.2519 278.446 41.5193 280.008 41.5193Z" fill="white"/>
<path d="M254.903 238.736C254.489 238.736 254.086 238.873 253.757 239.126C253.427 239.378 253.191 239.732 253.082 240.132L250.036 251.456C249.96 251.735 249.95 252.029 250.007 252.313C250.063 252.597 250.184 252.864 250.36 253.094C250.536 253.324 250.762 253.511 251.022 253.639C251.281 253.767 251.567 253.834 251.857 253.834H309.795C310.096 253.834 310.392 253.762 310.659 253.624C310.926 253.486 311.157 253.286 311.331 253.041C311.505 252.796 311.619 252.513 311.661 252.215C311.704 251.917 311.675 251.613 311.577 251.329L307.66 240.006C307.531 239.635 307.291 239.313 306.971 239.086C306.652 238.858 306.27 238.736 305.878 238.736H254.903Z" fill="#2F2E41"/>
<path d="M409.509 191.869V194.385H150.318L150.513 194.071V191.869H409.509Z" fill="#2F2E41"/>
<path d="M402.28 88.0712C426.583 88.0712 446.285 68.3558 446.285 44.0356C446.285 19.7154 426.583 0 402.28 0C377.976 0 358.274 19.7154 358.274 44.0356C358.274 68.3558 377.976 88.0712 402.28 88.0712Z" fill="#01A8F8"/>
<path d="M420.511 63.2225H384.049C383.382 63.2219 382.743 62.9565 382.272 62.4848C381.8 62.013 381.535 61.3734 381.534 60.7062V38.6884C381.535 38.0213 381.8 37.3816 382.272 36.9099C382.743 36.4381 383.382 36.1728 384.049 36.1721H420.511C421.177 36.1728 421.816 36.4381 422.288 36.9099C422.759 37.3816 423.024 38.0213 423.025 38.6884V60.7062C423.025 61.3734 422.759 62.013 422.288 62.4848C421.816 62.9566 421.177 63.2219 420.511 63.2225ZM384.049 38.6884V60.7062H420.512L420.511 38.6884L384.049 38.6884Z" fill="white"/>
<path d="M413.595 38.6884H390.964V28.6231C390.964 21.3328 395.723 16.0415 402.28 16.0415C408.836 16.0415 413.595 21.3328 413.595 28.6231L413.595 38.6884ZM393.479 36.1721H411.081V28.6231C411.081 22.6969 407.462 18.5579 402.28 18.5579C397.098 18.5579 393.479 22.6969 393.479 28.6231L393.479 36.1721Z" fill="white"/>
<path d="M402.28 51.5845C403.668 51.5845 404.794 50.458 404.794 49.0682C404.794 47.6785 403.668 46.5519 402.28 46.5519C400.891 46.5519 399.765 47.6785 399.765 49.0682C399.765 50.458 400.891 51.5845 402.28 51.5845Z" fill="white"/>
<path d="M371.56 140.657H190.341C189.452 140.656 188.599 140.302 187.97 139.672C187.341 139.043 186.987 138.189 186.986 137.299V92.3153C186.987 91.4249 187.341 90.5714 187.97 89.9418C188.599 89.3122 189.452 88.9581 190.341 88.9571H371.56C372.45 88.9581 373.303 89.3122 373.932 89.9418C374.561 90.5714 374.915 91.4249 374.916 92.3153V137.299C374.915 138.189 374.561 139.043 373.932 139.672C373.303 140.302 372.45 140.656 371.56 140.657ZM190.341 90.3004C189.808 90.3009 189.296 90.5134 188.918 90.8912C188.541 91.2689 188.329 91.7811 188.328 92.3153V137.299C188.329 137.833 188.541 138.345 188.918 138.723C189.296 139.101 189.808 139.313 190.341 139.314H371.56C372.094 139.313 372.606 139.101 372.984 138.723C373.361 138.345 373.573 137.833 373.574 137.299V92.3153C373.573 91.781 373.361 91.2689 372.984 90.8911C372.606 90.5134 372.094 90.3009 371.56 90.3003L190.341 90.3004Z" fill="#E6E6E6"/>
<path d="M218.499 126.761C226.049 126.761 232.169 120.636 232.169 113.081C232.169 105.526 226.049 99.4015 218.499 99.4015C210.949 99.4015 204.829 105.526 204.829 113.081C204.829 120.636 210.949 126.761 218.499 126.761Z" fill="#E6E6E6"/>
<path d="M250.071 103.961C249.771 103.961 249.475 104.019 249.198 104.134C248.921 104.248 248.669 104.416 248.457 104.628C248.245 104.84 248.077 105.091 247.963 105.368C247.848 105.645 247.789 105.942 247.789 106.241C247.789 106.541 247.848 106.838 247.963 107.115C248.077 107.391 248.245 107.643 248.457 107.855C248.669 108.066 248.921 108.234 249.198 108.349C249.475 108.463 249.771 108.522 250.071 108.521H357.479C358.083 108.521 358.663 108.281 359.09 107.853C359.517 107.426 359.758 106.846 359.758 106.241C359.758 105.637 359.517 105.057 359.09 104.629C358.663 104.202 358.083 103.961 357.479 103.961H250.071Z" fill="#E6E6E6"/>
<path d="M250.071 117.641C249.466 117.641 248.887 117.881 248.46 118.309C248.032 118.736 247.792 119.316 247.792 119.921C247.792 120.525 248.032 121.105 248.46 121.533C248.887 121.961 249.466 122.201 250.071 122.201H296.289C296.893 122.201 297.472 121.961 297.9 121.533C298.327 121.105 298.567 120.525 298.567 119.921C298.567 119.316 298.327 118.736 297.9 118.309C297.472 117.881 296.893 117.641 296.289 117.641H250.071Z" fill="#E6E6E6"/>
<path d="M149.872 118.563L116.372 136.385L115.948 121.534C126.882 119.707 137.285 116.527 146.903 111.349L150.407 102.687C150.789 101.744 151.409 100.915 152.208 100.284C153.006 99.6525 153.955 99.2396 154.96 99.0859C155.966 98.9322 156.995 99.0429 157.945 99.4071C158.895 99.7713 159.735 100.377 160.381 101.163C161.325 102.315 161.798 103.782 161.702 105.269C161.606 106.756 160.949 108.15 159.864 109.17L149.872 118.563Z" fill="#FFB8B8"/>
<path d="M68.0187 221.462C67.7743 220.565 67.7224 219.627 67.8664 218.708C68.0105 217.79 68.3471 216.912 68.8543 216.134L76.2132 204.832C77.9538 202.159 80.6246 200.228 83.7073 199.414C86.7901 198.601 90.0651 198.962 92.8968 200.428C89.8041 205.696 90.2352 210.317 93.9649 214.333C88.175 217.162 82.8237 220.812 78.077 225.172C77.2104 225.763 76.2152 226.139 75.1743 226.267C74.1334 226.395 73.0769 226.273 72.0928 225.91C71.1088 225.547 70.2256 224.954 69.5169 224.18C68.8083 223.407 68.2946 222.475 68.0187 221.462Z" fill="#2F2E41"/>
<path d="M151.398 206.686C150.284 208.543 148.712 210.082 146.833 211.157C144.953 212.231 142.83 212.804 140.665 212.82L91.7774 213.191L89.6572 200.885L111.284 194.52L93.0496 180.517L112.98 157.178L149.179 190.941C151.295 192.914 152.67 195.554 153.073 198.42C153.477 201.286 152.886 204.204 151.398 206.686Z" fill="#2F2E41"/>
<path d="M84.1446 290.845H72.6953C62.4155 220.332 51.9517 149.623 82.8725 123.231L119.34 129.172L114.676 160.148L94.3217 183.487L84.1446 290.845Z" fill="#2F2E41"/>
<path d="M94.209 306.818C93.3127 307.062 92.3748 307.114 91.457 306.97C90.5392 306.826 89.6623 306.489 88.8839 305.982L76.4524 304.31C73.7811 302.568 71.8515 299.896 71.038 296.811C70.2245 293.726 70.5851 290.449 72.0499 287.615C77.3145 290.71 81.9327 290.278 85.9459 286.545C88.7815 292.275 93.4536 291.925 97.9156 296.752C98.5064 297.62 98.8816 298.615 99.0099 299.657C99.1383 300.699 99.016 301.756 98.6534 302.741C98.2908 303.725 97.6982 304.609 96.9251 305.318C96.1521 306.028 95.2208 306.542 94.209 306.818Z" fill="#2F2E41"/>
<path d="M111.284 76.1293L90.0813 71.0373C93.6027 63.8243 93.8926 55.7985 92.2015 47.2743L106.619 46.8499C107.071 57.45 108.438 67.3531 111.284 76.1293Z" fill="#FFB8B8"/>
<path d="M117.111 141.948C101.676 152.473 90.7705 142.308 82.4483 126.626C83.6047 117.029 81.7323 105.545 78.2643 93.0669C76.722 87.563 77.2979 81.6806 79.8781 76.5809C82.4583 71.4811 86.8554 67.5348 92.2014 65.5209L110.435 73.159C125.918 85.7879 128.966 99.4676 123.157 113.895L117.111 141.948Z" fill="#024EC5"/>
<path d="M72.6954 86.7378L55.7335 95.6489L85.8408 113.471L90.0301 123.812C90.3097 124.502 90.4459 125.242 90.4304 125.986C90.4149 126.731 90.248 127.465 89.94 128.143C89.6319 128.82 89.1891 129.429 88.6385 129.93C88.0879 130.431 87.4411 130.814 86.7376 131.057C85.9378 131.333 85.085 131.42 84.2461 131.311C83.4071 131.202 82.6047 130.901 81.9017 130.43C81.1988 129.959 80.6143 129.331 80.1941 128.596C79.7739 127.862 79.5294 127.039 79.4797 126.194L79.0561 118.988L40.79 106.351C39.5007 105.925 38.3252 105.212 37.3524 104.264C36.3796 103.316 35.635 102.159 35.1752 100.881C34.5048 99.0177 34.4707 96.9846 35.0781 95.0998C35.6856 93.2151 36.9003 91.585 38.5321 90.4647L69.303 69.3399L72.6954 86.7378Z" fill="#FFB8B8"/>
<path d="M89.6573 88.4352C82.5831 85.3328 76.1504 88.7029 68.0309 91.4055L66.7588 68.9156C74.8211 64.6155 82.508 63.4561 89.6573 66.7939L89.6573 88.4352Z" fill="#024EC5"/>
<path d="M98.1194 57.99C105.596 57.99 111.656 51.9252 111.656 44.4438C111.656 36.9624 105.596 30.8976 98.1194 30.8976C90.6432 30.8976 84.5825 36.9624 84.5825 44.4438C84.5825 51.9252 90.6432 57.99 98.1194 57.99Z" fill="#FFB8B8"/>
<path d="M114.314 42.7346C100.911 44.0482 90.6984 41.8547 84.1714 35.6092V30.5795H113.176L114.314 42.7346Z" fill="#2F2E41"/>
</svg>
